<svg xmlns="http://www.w3.org/2000/svg" viewBox="0 0 512 512">
  <defs>
    <linearGradient id="bg" x1="0" y1="0" x2="1" y2="1">
      <stop offset="0" stop-color="#f8fafc"/>
      <stop offset="1" stop-color="#eef2f7"/>
    </linearGradient>
    <linearGradient id="box" x1="0" y1="0" x2="1" y2="1">
      <stop offset="0" stop-color="#4f8df7"/>
      <stop offset="1" stop-color="#185bd6"/>
    </linearGradient>
    <filter id="shadow" x="-20%" y="-20%" width="140%" height="150%">
      <feDropShadow dx="0" dy="14" stdDeviation="18" flood-color="#0f172a" flood-opacity=".22"/>
    </filter>
  </defs>
  <rect width="512" height="512" rx="108" fill="url(#bg)"/>
  <g filter="url(#shadow)">
    <path d="M104 250c0-28 22-50 50-50h204c28 0 50 22 50 50v116c0 30-24 54-54 54H158c-30 0-54-24-54-54V250Z" fill="url(#box)"/>
    <path d="M132 250c0-14 11-25 25-25h198c14 0 25 11 25 25v54c0 14-11 25-25 25H157c-14 0-25-11-25-25v-54Z" fill="#0f3f9e" opacity=".32"/>
    <rect x="200" y="338" width="112" height="42" rx="14" fill="#f8fafc"/>
    <rect x="222" y="352" width="68" height="14" rx="7" fill="#cbd5e1"/>
    <rect x="128" y="142" width="112" height="112" rx="28" fill="#1f2937"/>
    <rect x="252" y="136" width="112" height="112" rx="28" fill="#ffffff"/>
    <rect x="150" y="224" width="112" height="112" rx="28" fill="#2dd4bf"/>
    <rect x="274" y="224" width="112" height="112" rx="28" fill="#fbbf24"/>
    <path d="M165 190h30l-30-30" fill="none" stroke="#f8fafc" stroke-width="16" stroke-linecap="round" stroke-linejoin="round"/>
    <path d="M196 204h32" fill="none" stroke="#f8fafc" stroke-width="16" stroke-linecap="round"/>
    <path d="M293 196a34 34 0 1 1 24 24" fill="none" stroke="#38bdf8" stroke-width="18" stroke-linecap="round"/>
    <path d="M293 196a34 34 0 0 1 34-34" fill="none" stroke="#2563eb" stroke-width="18" stroke-linecap="round"/>
    <circle cx="177" cy="280" r="15" fill="#f8fafc"/>
    <circle cx="226" cy="254" r="15" fill="#f8fafc"/>
    <circle cx="232" cy="306" r="15" fill="#f8fafc"/>
    <path d="M190 273l23-12m26 37-13-31" stroke="#f8fafc" stroke-width="12" stroke-linecap="round"/>
    <path d="M314 274l-22 20 22 20m32-40 22 20-22 20m-10-48-20 56" fill="none" stroke="#ffffff" stroke-width="16" stroke-linecap="round" stroke-linejoin="round"/>
  </g>
</svg>
